<svg height="512pt" viewBox="0 0 512 512.001" width="512pt" xmlns="http://www.w3.org/2000/svg"><path d="m497 152h-482c-8.285156 0-15-6.71875-15-15 0-8.285156 6.714844-15 15-15h482c8.285156 0 15 6.714844 15 15 0 8.28125-6.714844 15-15 15zm0 0"/><g fill-rule="evenodd"><path d="m15 30h482c8.285156 0 15 6.714844 15 15v92c0 8.285156-6.714844 15-15 15h-482c-8.285156 0-15-6.714844-15-15v-92c0-8.285156 6.714844-15 15-15zm0 0" fill="#007a9f"/><path d="m256 30h241c8.285156 0 15 6.714844 15 15v92c0 8.285156-6.714844 15-15 15h-241zm0 0" fill="#00607f"/><path d="m512 122v375c0 8.285156-6.714844 15-15 15h-482c-8.285156 0-15-6.714844-15-15 0-125 0-250 0-375zm0 0" fill="#dff3ff"/><path d="m512 122v375c0 8.285156-6.714844 15-15 15h-241v-390zm0 0" fill="#c5e7fd"/><path d="m285 212c-8.285156 0-15-6.714844-15-15s6.714844-15 15-15h10c8.285156 0 15 6.714844 15 15s-6.714844 15-15 15zm0 0" fill="#0082ff"/><path d="m355 212c-8.285156 0-15-6.714844-15-15s6.714844-15 15-15h10c8.285156 0 15 6.714844 15 15s-6.714844 15-15 15zm0 0" fill="#0082ff"/><path d="m425 212c-8.285156 0-15-6.714844-15-15s6.714844-15 15-15h10c8.285156 0 15 6.714844 15 15s-6.714844 15-15 15zm0 0" fill="#0082ff"/><path d="m75 272c-8.285156 0-15-6.714844-15-15s6.714844-15 15-15h10c8.285156 0 15 6.714844 15 15s-6.714844 15-15 15zm0 0" fill="#0095ff"/><path d="m145 272c-8.285156 0-15-6.714844-15-15s6.714844-15 15-15h10c8.285156 0 15 6.714844 15 15s-6.714844 15-15 15zm0 0" fill="#0095ff"/><path d="m215 272c-8.285156 0-15-6.714844-15-15s6.714844-15 15-15h10c8.285156 0 15 6.714844 15 15s-6.714844 15-15 15zm0 0" fill="#0095ff"/><path d="m285 272c-8.285156 0-15-6.714844-15-15s6.714844-15 15-15h10c8.285156 0 15 6.714844 15 15s-6.714844 15-15 15zm0 0" fill="#0082ff"/><path d="m355 272c-8.285156 0-15-6.714844-15-15s6.714844-15 15-15h10c8.285156 0 15 6.714844 15 15s-6.714844 15-15 15zm0 0" fill="#0082ff"/><path d="m425 272c-8.285156 0-15-6.714844-15-15s6.714844-15 15-15h10c8.285156 0 15 6.714844 15 15s-6.714844 15-15 15zm0 0" fill="#0082ff"/><path d="m75 332c-8.285156 0-15-6.714844-15-15s6.714844-15 15-15h10c8.285156 0 15 6.714844 15 15s-6.714844 15-15 15zm0 0" fill="#0095ff"/><path d="m145 332c-8.285156 0-15-6.714844-15-15s6.714844-15 15-15h10c8.285156 0 15 6.714844 15 15s-6.714844 15-15 15zm0 0" fill="#0095ff"/><path d="m215 332c-8.285156 0-15-6.714844-15-15s6.714844-15 15-15h10c8.285156 0 15 6.714844 15 15s-6.714844 15-15 15zm0 0" fill="#0095ff"/><path d="m285 332c-8.285156 0-15-6.714844-15-15s6.714844-15 15-15h10c8.285156 0 15 6.714844 15 15s-6.714844 15-15 15zm0 0" fill="#0082ff"/><path d="m355 332c-8.285156 0-15-6.714844-15-15s6.714844-15 15-15h10c8.285156 0 15 6.714844 15 15s-6.714844 15-15 15zm0 0" fill="#0082ff"/><path d="m425 332c-8.285156 0-15-6.714844-15-15s6.714844-15 15-15h10c8.285156 0 15 6.714844 15 15s-6.714844 15-15 15zm0 0" fill="#0082ff"/><path d="m75 392c-8.285156 0-15-6.714844-15-15s6.714844-15 15-15h10c8.285156 0 15 6.714844 15 15s-6.714844 15-15 15zm0 0" fill="#0095ff"/><path d="m145 392c-8.285156 0-15-6.714844-15-15s6.714844-15 15-15h10c8.285156 0 15 6.714844 15 15s-6.714844 15-15 15zm0 0" fill="#0095ff"/><path d="m215 392c-8.285156 0-15-6.714844-15-15s6.714844-15 15-15h10c8.285156 0 15 6.714844 15 15s-6.714844 15-15 15zm0 0" fill="#0095ff"/><path d="m285 392c-8.285156 0-15-6.714844-15-15s6.714844-15 15-15h10c8.285156 0 15 6.714844 15 15s-6.714844 15-15 15zm0 0" fill="#0082ff"/><path d="m355 392c-8.285156 0-15-6.714844-15-15s6.714844-15 15-15h10c8.285156 0 15 6.714844 15 15s-6.714844 15-15 15zm0 0" fill="#0082ff"/><path d="m425 392c-8.285156 0-15-6.714844-15-15s6.714844-15 15-15h10c8.285156 0 15 6.714844 15 15s-6.714844 15-15 15zm0 0" fill="#0082ff"/><path d="m78.320312 452c-8.28125 0-15-6.714844-15-15s6.71875-15 15-15h10c8.285157 0 15 6.714844 15 15s-6.714843 15-15 15zm0 0" fill="#0095ff"/><path d="m148.320312 452c-8.28125 0-15-6.714844-15-15s6.71875-15 15-15h10c8.285157 0 15 6.714844 15 15s-6.714843 15-15 15zm0 0" fill="#0095ff"/><path d="m75 0h60c8.285156 0 15 6.714844 15 15v62c0 8.285156-6.714844 15-15 15h-60c-8.285156 0-15-6.714844-15-15v-62c0-8.285156 6.714844-15 15-15zm0 0" fill="#dff3ff"/><path d="m377 0h60c8.285156 0 15 6.714844 15 15v62c0 8.285156-6.714844 15-15 15h-60c-8.285156 0-15-6.714844-15-15v-62c0-8.285156 6.714844-15 15-15zm0 0" fill="#c5e7fd"/><path d="m285 212c-8.285156 0-15-6.714844-15-15s6.714844-15 15-15h10c8.285156 0 15 6.714844 15 15s-6.714844 15-15 15zm0 0" fill="#0082ff"/><path d="m355 212c-8.285156 0-15-6.714844-15-15s6.714844-15 15-15h10c8.285156 0 15 6.714844 15 15s-6.714844 15-15 15zm0 0" fill="#0082ff"/><path d="m425 212c-8.285156 0-15-6.714844-15-15s6.714844-15 15-15h10c8.285156 0 15 6.714844 15 15s-6.714844 15-15 15zm0 0" fill="#0082ff"/><path d="m285 272c-8.285156 0-15-6.714844-15-15s6.714844-15 15-15h10c8.285156 0 15 6.714844 15 15s-6.714844 15-15 15zm0 0" fill="#0082ff"/><path d="m355 272c-8.285156 0-15-6.714844-15-15s6.714844-15 15-15h10c8.285156 0 15 6.714844 15 15s-6.714844 15-15 15zm0 0" fill="#0082ff"/><path d="m425 272c-8.285156 0-15-6.714844-15-15s6.714844-15 15-15h10c8.285156 0 15 6.714844 15 15s-6.714844 15-15 15zm0 0" fill="#0082ff"/><path d="m285 332c-8.285156 0-15-6.714844-15-15s6.714844-15 15-15h10c8.285156 0 15 6.714844 15 15s-6.714844 15-15 15zm0 0" fill="#0082ff"/><path d="m355 332c-8.285156 0-15-6.714844-15-15s6.714844-15 15-15h10c8.285156 0 15 6.714844 15 15s-6.714844 15-15 15zm0 0" fill="#0082ff"/><path d="m425 332c-8.285156 0-15-6.714844-15-15s6.714844-15 15-15h10c8.285156 0 15 6.714844 15 15s-6.714844 15-15 15zm0 0" fill="#0082ff"/><path d="m285 392c-8.285156 0-15-6.714844-15-15s6.714844-15 15-15h10c8.285156 0 15 6.714844 15 15s-6.714844 15-15 15zm0 0" fill="#0082ff"/><path d="m355 392c-8.285156 0-15-6.714844-15-15s6.714844-15 15-15h10c8.285156 0 15 6.714844 15 15s-6.714844 15-15 15zm0 0" fill="#0082ff"/><path d="m425 392c-8.285156 0-15-6.714844-15-15s6.714844-15 15-15h10c8.285156 0 15 6.714844 15 15s-6.714844 15-15 15zm0 0" fill="#0082ff"/></g></svg>