<?xml version="1.0" encoding="iso-8859-1"?>
<!-- Generator: Adobe Illustrator 19.0.0, SVG Export Plug-In . SVG Version: 6.00 Build 0)  -->
<svg version="1.1" id="Layer_1" xmlns="http://www.w3.org/2000/svg" xmlns:xlink="http://www.w3.org/1999/xlink" x="0px" y="0px"
	 viewBox="0 0 512 512" style="enable-background:new 0 0 512 512;" xml:space="preserve">
<path style="fill:#00ABE0;" d="M169.275,124.646h333.52c5.083,0,9.204,4.121,9.204,9.204v247.648c0,5.083-4.121,9.204-9.204,9.204
	h-53.632v53.236c0,8.049-9.604,12.221-15.487,6.727l-63.066-58.888H169.275c-5.083,0-9.204-4.121-9.204-9.204v-56.603V133.85
	C160.071,128.767,164.192,124.646,169.275,124.646z"/>
<path style="fill:#099DD1;" d="M160.071,360.59h266.364c18.261,0,33.065-14.803,33.065-33.065v-202.88H160.071V360.59z"/>
<path style="fill:#FF7258;" d="M65.734,58.838H9.204C4.121,58.838,0,62.959,0,68.043v247.648c0,5.083,4.121,9.204,9.204,9.204
	h53.632v53.236c0,8.049,9.604,12.221,15.487,6.727l63.066-58.888h271.437c5.083,0,9.204-4.121,9.204-9.204V68.043
	c0-5.083-4.121-9.204-9.204-9.204H121.87H65.734z"/>
<g>
	<circle style="fill:#EFEFEF;" cx="111.708" cy="196.216" r="21.206"/>
	<circle style="fill:#EFEFEF;" cx="210.058" cy="196.216" r="21.206"/>
	<circle style="fill:#EFEFEF;" cx="308.408" cy="196.216" r="21.206"/>
</g>
<g>
</g>
<g>
</g>
<g>
</g>
<g>
</g>
<g>
</g>
<g>
</g>
<g>
</g>
<g>
</g>
<g>
</g>
<g>
</g>
<g>
</g>
<g>
</g>
<g>
</g>
<g>
</g>
<g>
</g>
</svg>
