<?xml version="1.0" encoding="iso-8859-1"?>
<!-- Generator: Adobe Illustrator 19.0.0, SVG Export Plug-In . SVG Version: 6.00 Build 0)  -->
<svg version="1.1" id="Layer_1" xmlns="http://www.w3.org/2000/svg" xmlns:xlink="http://www.w3.org/1999/xlink" x="0px" y="0px"
	 viewBox="0 0 512 512" style="enable-background:new 0 0 512 512;" xml:space="preserve">
<path style="fill:#FED9A8;" d="M445.487,92.402H34.803c-11.886,0-21.521-9.635-21.521-21.521v-49.36C13.282,9.635,22.918,0,34.803,0
	h410.684c11.886,0,21.521,9.635,21.521,21.521v49.36C467.008,82.766,457.372,92.402,445.487,92.402z"/>
<path style="fill:#EABE92;" d="M445.529,0h-9.443v46.581c0,8.161-6.59,14.778-14.72,14.778H13.282v9.48
	c0,11.909,9.616,21.563,21.479,21.563h410.768c11.862,0,21.479-9.654,21.479-21.563V21.563C467.008,9.654,457.392,0,445.529,0z"/>
<path style="fill:#FFA227;" d="M261.464,512h-42.637c-3.814,0-6.906-3.092-6.906-6.906V302.122h56.448v202.972
	C268.368,508.908,265.277,512,261.464,512z"/>
<path style="fill:#F78B0B;" d="M261.464,512h-24.195V302.122h31.1v202.972C268.368,508.908,265.277,512,261.464,512z"/>
<path style="fill:#088AFF;" d="M44.217,0v89.536c0,11.672,9.425,21.134,21.052,21.134l0,0c11.627,0,21.052-9.462,21.052-21.134
	v-4.347c0-11.672,9.425-21.134,21.052-21.134l0,0c11.626,0,21.052,9.462,21.052,21.134v32.04c0,11.672,9.425,21.134,21.052,21.134
	l0,0c11.626,0,21.052-9.462,21.052-21.134V56.767c0,11.672,9.425,21.134,21.052,21.134l0,0c11.626,0,21.052-9.462,21.052-21.134V0
	H44.217z"/>
<g>
	<path style="fill:#FFCC5A;" d="M281.303,279.587h-82.315c-3.482,0-6.305,2.823-6.305,6.305v18.932c0,3.482,2.823,6.305,6.305,6.305
		h82.315c3.482,0,6.305-2.823,6.305-6.305v-18.932C287.607,282.409,284.784,279.587,281.303,279.587z"/>
	<rect x="211.92" y="338.43" style="fill:#FFCC5A;" width="56.45" height="7.211"/>
	<rect x="211.92" y="381.86" style="fill:#FFCC5A;" width="56.45" height="7.211"/>
	<rect x="211.92" y="468.74" style="fill:#FFCC5A;" width="56.45" height="7.211"/>
	<rect x="211.92" y="425.3" style="fill:#FFCC5A;" width="56.45" height="7.211"/>
</g>
<path style="fill:#FFB000;" d="M281.315,279.586h-24.63v31.541h24.63c3.475,0,6.292-2.828,6.292-6.317v-18.908
	C287.607,282.415,284.79,279.586,281.315,279.586z"/>
<path style="fill:#0076CE;" d="M181.708,75.43c2.945,1.573,6.302,2.471,9.87,2.471l0,0c11.626,0,21.052-9.462,21.052-21.134V0
	h-30.922V75.43z"/>
<path style="fill:#808080;" d="M473.898,43.893h-6.891v12.362h6.891c6.869,0,12.457,5.589,12.457,12.457v68.187
	c0,6.115-4.781,11.197-10.884,11.571l-219.017,13.418c-12.612,0.774-22.49,11.276-22.49,23.911v93.787h12.362V185.8
	c0-6.115,4.781-11.198,10.884-11.572l219.017-13.418c12.612-0.773,22.491-11.276,22.491-23.91V68.712
	C498.717,55.027,487.584,43.893,473.898,43.893z"/>
<g>
</g>
<g>
</g>
<g>
</g>
<g>
</g>
<g>
</g>
<g>
</g>
<g>
</g>
<g>
</g>
<g>
</g>
<g>
</g>
<g>
</g>
<g>
</g>
<g>
</g>
<g>
</g>
<g>
</g>
</svg>
