<svg width="64" height="64" xmlns="http://www.w3.org/2000/svg">

 <g>
  <title>background</title>
  <rect fill="none" id="canvas_background" height="402" width="582" y="-1" x="-1"/>
 </g>
 <g>
  <title>Layer 1</title>
  <path fill="#ffffff" id="svg_1" d="m54,30l-39.899,0l15.278,-14.552c0.8,-0.762 0.831,-2.028 0.069,-2.828c-0.761,-0.799 -2.027,-0.831 -2.828,-0.069l-17.448,16.62c-0.755,0.756 -1.172,1.76 -1.172,2.829c0,1.068 0.417,2.073 1.207,2.862l17.414,16.586c0.387,0.369 0.883,0.552 1.379,0.552c0.528,0 1.056,-0.208 1.449,-0.621c0.762,-0.8 0.731,-2.065 -0.069,-2.827l-15.342,-14.552l39.962,0c1.104,0 2,-0.896 2,-2s-0.896,-2 -2,-2z"/>
  <polyline stroke="null" stroke-linecap="round" id="svg_2" points="13.348511508143233,31.901488617120478 13.348511508143233,31.901488617120478 " fill-opacity="null" stroke-opacity="null" stroke-width="null" fill="none"/>
  <path d="m11.597198,32.426884c0,0 0.546224,-3.014957 0.875656,-4.028023c0.363305,-1.117229 1.15766,-3.249847 2.101576,-5.253941c0.703993,-1.494696 1.438845,-2.252155 2.451839,-3.852888c0.546078,-0.862911 0.999495,-1.277214 0.875656,-1.401052c-0.123837,-0.123837 -0.473812,0.235762 -0.875656,0.525394c-0.317688,0.228977 -0.631031,2.820208 -1.050788,6.830124c-0.332723,3.178478 -1.225722,9.094353 -1.401052,12.784588c-0.083114,1.74934 0,2.276707 0,2.276707c0,0 0.726237,0.023949 1.050789,-0.350262c1.147463,-1.323036 4.237968,-6.812195 6.47986,-11.208406c2.134865,-4.186342 3.852888,-7.355516 4.378283,-8.756567l0.350264,-1.22592l0,-0.175131" id="svg_3" fill-opacity="null" stroke-opacity="null" stroke-width="null" stroke="null" fill="none"/>
  <path d="m43.821365,26.472417c0,0 0.701193,-0.037457 1.751314,0c2.456522,0.087622 3.489632,0.087994 4.378283,0c1.045675,-0.103542 1.401051,0 1.926445,0c0,0 0,0 -0.350262,0c-0.175133,0 -2.645794,0.343977 -5.779335,0c-1.604992,-0.176184 -3.668827,-0.707708 -5.07881,-2.451839c-1.477162,-1.82723 -1.401051,-3.85289 -1.401051,-4.728546c0,-0.700525 0.284328,-1.794418 0.875657,-2.62697c0.792054,-1.11516 2.048277,-3.717636 2.977233,-4.903679c0.995607,-1.271139 3.613018,-3.075809 4.903677,-3.852889c0.335491,-0.201993 0.409721,-0.087142 0.700525,0.175132c1.695669,1.529306 2.267963,4.548567 2.276709,7.70578c0.009714,3.506989 -0.437609,5.770002 -0.525394,7.005253c-0.037245,0.524073 0.01333,0.767546 0.175131,0.700525c0.228819,-0.09478 0.430614,-0.121443 0.525394,-0.350262c0.06702,-0.161802 0.030313,-0.499603 0.175131,-0.700525c0.228977,-0.317688 0.437531,-2.616106 0.525394,-3.677759c0.130003,-1.57081 0.548292,-2.154461 -0.350262,-2.802101c-0.142075,-0.102402 -0.350264,0 -1.401052,0.350262l-0.875656,0.350264l-0.350262,0.350262l-0.175133,0" id="svg_4" fill-opacity="null" stroke-opacity="null" stroke-width="null" stroke="null" fill="none"/>
  <path d="m15.80035,22.794659c0,0 -0.072542,-0.102591 0.175132,-0.350264c0.123837,-0.123837 0.331126,-0.196632 0.525393,-0.350262c7.586365,-5.999468 9.982487,-5.954466 9.982487,-5.954466c0.350264,-0.175132 3.09852,-1.959021 3.327496,-2.276708c0.144817,-0.200922 0.1618,0.108112 0,0.175132c-0.45764,0.189561 -1.785034,0.835737 -6.47986,5.604202c-3.30607,3.357927 -5.803509,6.447569 -9.457092,10.157618c-5.390084,5.473389 -6.871354,6.958981 -8.056042,8.056042c-0.363448,0.336563 -0.700524,0.525394 -0.525394,0.350266c0.175132,-0.175133 0.480185,-0.764782 7.88091,-7.355518c4.085907,-3.638714 6.218555,-6.014654 8.9317,-9.807356c1.528414,-2.136568 1.913113,-2.518858 1.751312,-2.451838c-0.45764,0.18956 -2.157108,4.749298 -4.028021,12.959719c-0.51178,2.245924 -0.386414,4.0898 0.700525,5.429071c2.450432,3.019302 8.023235,2.219898 13.309982,-0.525394c7.943436,-4.124855 12.010185,-8.338842 14.010509,-9.632223c2.37138,-1.5333 2.65276,-1.370735 2.451839,-1.22592c-4.447609,3.205675 -12.77523,8.45343 -16.812611,10.858143c-1.836653,1.093933 -2.359768,2.07542 -2.451839,1.926445c-0.205879,-0.333118 0.733715,-2.157875 3.502628,-8.931698c2.166584,-5.300301 6.422089,-11.598352 7.880909,-13.660245c1.011513,-1.429667 1.221912,-1.629025 0.875656,-1.576182c-5.804272,0.885795 -11.277531,4.718773 -13.660244,6.129597c-0.673933,0.399042 -0.693472,0.911278 2.451839,0.700525c9.168415,-0.614334 12.671539,-2.658136 16.462345,-4.378283c2.496262,-1.132725 3.85289,-1.926445 3.85289,-2.101577c0,0 -1.480549,0.134366 -9.457092,5.25394c-3.360909,2.157127 -5.513779,3.626909 -7.005253,5.604204c-1.085812,1.439491 -1.174625,2.328001 -1.050789,2.451839c0.123837,0.123838 5.487179,0.234076 9.457092,-0.875658c5.707275,-1.59539 12.13736,-6.804331 17.688267,-11.208405c3.429886,-2.72126 5.173592,-4.149463 5.078812,-4.378284c-0.134041,-0.323604 -3.240231,-1.059568 -11.208408,0.525393c-9.249897,1.839911 -14.682411,4.586648 -21.015762,7.705779c-3.235117,1.593273 -4.638575,2.771235 -4.728546,3.152365c-0.040237,0.170446 -0.075027,0.468393 2.626968,2.101576c3.755978,2.270247 6.518673,2.880327 9.807358,4.728546c0.763367,0.429007 1.175266,0.723391 1.050789,1.050789c-0.749451,1.971197 -5.604206,6.830122 -11.033276,11.383535l-0.175133,0.350266" id="svg_5" fill-opacity="null" stroke-opacity="null" stroke-width="null" stroke="null" fill="none"/>
  <polyline stroke="null" stroke-linecap="round" id="svg_6" points="18.777583275725945,23.49518394473433 18.777583275725945,23.49518394473433 " stroke-opacity="null" stroke-width="null" fill="none"/>
 </g>
</svg>